<svg  xmlns="http://www.w3.org/2000/svg" xmlns:xlink="http://www.w3.org/1999/xlink" width="80" height="64">
<defs id="icograms-svg-defs">
                    <style id="icograms-svg-defs-style-fonts" type="text/css">

                    </style>
                </defs>
<rect id="chart-background-color" width="80" height="64" fill="#FFFFFF" stroke="none" fill-opacity="1.0"></rect>
<g id="chart-container"><g id="i9" class="lvl-1" transform="translate(0,0)translate(80,0)scale(-1, 1)"><g><path d="m77 51-58-29-16 8 58 29z" opacity=".2"></path><path d="m75.3 46.1c-.6-.3-1.2-.4-1.6-.2l-.7.4c-.5.2-.7.7-.7 1.3 0 1.3 1.1 2.9 2.4 3.5.6.3 1.2.4 1.7.1 0 0 .7-.3.8-.4.4-.2.6-.7.6-1.3-.1-1.1-1.2-2.7-2.5-3.4z" fill="#2d3134"></path><path d="m76.3 51.3c.2-.1.7-.3.7-.3.4-.2.6-.7.6-1.3 0-.5-.2-1.1-.5-1.6l-.7.3c.3.5.5 1.1.5 1.6.1.7-.2 1.1-.6 1.3z" opacity=".11"></path><path d="m76.4 49.7c0 1-.8 1.4-1.8.9s-1.8-1.7-1.8-2.7.8-1.4 1.8-.9 1.8 1.7 1.8 2.7z" opacity=".5"></path><path d="m75.5 49.1c0 .4-.3.6-.7.4s-.7-.7-.7-1.1.3-.6.7-.4.7.7.7 1.1z" fill="#2d3134"></path><path d="m75.5 49.1c0 .4-.3.6-.7.4s-.7-.7-.7-1.1.3-.6.7-.4.7.7.7 1.1z" opacity=".11"></path><path d="m75.4 49.2c0 .4-.3.6-.7.4s-.7-.7-.7-1.1.3-.6.7-.4c.3.2.7.7.7 1.1z" fill="#2d3134"></path><path d="m77 50c0 1.3-1.1 1.8-2.4 1.2s-2.4-2.2-2.4-3.5 1.1-1.8 2.4-1.2 2.4 2.2 2.4 3.5z" opacity=".29"></path><path d="m15.4 30c-.6-.3-1.2-.4-1.6-.2l-.7.3c-.5.2-.7.7-.7 1.3 0 1.3 1.1 2.9 2.4 3.5.6.3 1.2.4 1.7.1 0 0 .7-.3.8-.4.4-.2.6-.7.6-1.3-.2-1-1.2-2.6-2.5-3.3z" fill="#2d3134"></path><path d="m16.4 35.2c.2-.1.7-.3.7-.4.4-.2.6-.7.6-1.3 0-.5-.2-1.1-.5-1.6l-.7.3c.3.5.5 1.1.5 1.6 0 .8-.2 1.2-.6 1.4z" opacity=".11"></path><path d="m16.4 33.6c0 1-.8 1.4-1.8.9s-1.8-1.7-1.8-2.7.8-1.4 1.8-.9c1.1.5 1.8 1.7 1.8 2.7z" opacity=".5"></path><path d="m15.6 33c0 .4-.3.6-.7.4s-.7-.7-.7-1.1.3-.6.7-.4c.3.2.7.7.7 1.1z" fill="#2d3134"></path><path d="m15.6 33c0 .4-.3.6-.7.4s-.7-.7-.7-1.1.3-.6.7-.4c.3.2.7.7.7 1.1z" opacity=".11"></path><path d="m15.4 33.1c0 .4-.3.6-.7.4s-.7-.7-.7-1.1.3-.6.7-.4.7.7.7 1.1z" fill="#2d3134"></path><path d="m17 33.9c0 1.3-1.1 1.8-2.4 1.2s-2.4-2.2-2.4-3.5 1.1-1.8 2.4-1.2 2.4 2.2 2.4 3.5z" opacity=".29"></path><path d="m7.4 26c-.6-.3-1.2-.4-1.6-.2l-.7.3c-.5.2-.7.7-.7 1.3 0 1.3 1.1 2.9 2.4 3.5.6.3 1.2.4 1.7.1 0 0 .7-.3.8-.4.4-.2.6-.7.6-1.3-.2-1-1.2-2.6-2.5-3.3z" fill="#2d3134"></path><path d="m8.4 31.2c.2-.1.7-.3.7-.4.4-.2.6-.7.6-1.3 0-.5-.2-1.1-.5-1.6l-.7.3c.4.6.5 1.2.5 1.7 0 .7-.2 1.1-.6 1.3z" opacity=".11"></path><path d="m8.4 29.6c0 1-.8 1.4-1.8.9s-1.8-1.7-1.8-2.7.8-1.4 1.8-.9c1.1.5 1.8 1.7 1.8 2.7z" opacity=".5"></path><path d="m7.6 29c0 .4-.3.6-.7.4s-.7-.7-.7-1.1.3-.6.7-.4c.3.2.7.7.7 1.1z" fill="#2d3134"></path><path d="m7.6 29c0 .4-.3.6-.7.4s-.7-.7-.7-1.1.3-.6.7-.4c.3.2.7.7.7 1.1z" opacity=".11"></path><path d="m7.4 29.1c0 .4-.3.6-.7.4s-.7-.7-.7-1.1.3-.6.7-.4.7.7.7 1.1z" fill="#2d3134"></path><path d="m9 29.9c0 1.3-1.1 1.8-2.4 1.2s-2.4-2.2-2.4-3.5 1.1-1.8 2.4-1.2 2.4 2.2 2.4 3.5z" opacity=".29"></path><path d="m5 26.5v1.5l1 .5 2 2.5 4 2 2-.5 1 .5 2-1v-1.5l-2 1z" fill="#2d3134"></path><path d="m5 26.5v1.5l1 .5 2 2.5 4 2 2-.5 1 .5v-1.5z" opacity=".29"></path><path d="m17 32v-1.5l-2 1v1.5z" opacity=".11"></path><path d="m61.4 53c-.6-.3-1.2-.4-1.6-.2l-.7.3c-.5.2-.7.7-.7 1.3 0 1.3 1.1 2.9 2.4 3.5.6.3 1.2.4 1.7.1 0 0 .7-.3.8-.4.4-.2.6-.7.6-1.3-.2-1-1.2-2.6-2.5-3.3z" fill="#2d3134"></path><path d="m62.4 58.2c.2-.1.7-.3.7-.4.4-.2.6-.7.6-1.3 0-.5-.2-1.1-.5-1.6l-.7.3c.3.5.5 1.1.5 1.6 0 .8-.2 1.2-.6 1.4z" opacity=".11"></path><path d="m62.4 56.6c0 1-.8 1.4-1.8.9s-1.8-1.7-1.8-2.7.8-1.4 1.8-.9c1.1.5 1.8 1.7 1.8 2.7z" opacity=".5"></path><path d="m61.6 56c0 .4-.3.6-.7.4s-.7-.7-.7-1.1.3-.6.7-.4c.3.2.7.7.7 1.1z" fill="#2d3134"></path><path d="m61.6 56c0 .4-.3.6-.7.4s-.7-.7-.7-1.1.3-.6.7-.4c.3.2.7.7.7 1.1z" opacity=".11"></path><path d="m61.4 56.1c0 .4-.3.6-.7.4s-.7-.7-.7-1.1.3-.6.7-.4.7.7.7 1.1z" fill="#2d3134"></path><path d="m63 56.9c0 1.3-1.1 1.8-2.4 1.2s-2.4-2.2-2.4-3.5 1.1-1.8 2.4-1.2 2.4 2.2 2.4 3.5z" opacity=".29"></path><path d="m32 26-14 7v2l32 16 14-7v-2z" fill="#539B00"></path><path d="m18 33v2l32 16v-2z" opacity=".29"></path><path d="m64 42v2l-14 7v-2z" opacity=".11"></path><path d="m53.4 49c-.6-.3-1.2-.4-1.6-.2l-.7.3c-.5.2-.7.7-.7 1.3 0 1.3 1.1 2.9 2.4 3.5.6.3 1.2.4 1.7.1 0 0 .7-.3.8-.4.4-.2.6-.7.6-1.3-.2-1-1.2-2.6-2.5-3.3z" fill="#2d3134"></path><path d="m54.4 54.2c.2-.1.7-.3.7-.4.4-.2.6-.7.6-1.3 0-.5-.2-1.1-.5-1.6l-.7.3c.3.5.5 1.1.5 1.6 0 .8-.2 1.2-.6 1.4z" opacity=".11"></path><path d="m54.4 52.6c0 1-.8 1.4-1.8.9s-1.8-1.7-1.8-2.7.8-1.4 1.8-.9c1.1.5 1.8 1.7 1.8 2.7z" opacity=".5"></path><path d="m53.6 52c0 .4-.3.6-.7.4s-.7-.7-.7-1.1.3-.6.7-.4c.3.2.7.7.7 1.1z" fill="#2d3134"></path><path d="m53.6 52c0 .4-.3.6-.7.4s-.7-.7-.7-1.1.3-.6.7-.4c.3.2.7.7.7 1.1z" opacity=".11"></path><path d="m53.4 52.1c0 .4-.3.6-.7.4s-.7-.7-.7-1.1.3-.6.7-.4.7.7.7 1.1z" fill="#2d3134"></path><path d="m55 52.9c0 1.3-1.1 1.8-2.4 1.2s-2.4-2.2-2.4-3.5 1.1-1.8 2.4-1.2 2.4 2.2 2.4 3.5z" opacity=".29"></path><path d="m51 49.5v1.5l1 .5 2 2.5 4 2 2-.5 1 .5 2-1v-1.5l-2 1z" fill="#2d3134"></path><path d="m51 49.5v1.5l1 .5 2 2.5 4 2 2-.5 1 .5v-1.5z" opacity=".29"></path><path d="m63 55v-1.5l-2 1v1.5z" opacity=".11"></path><path d="m16 16-14 7v2l62 31 14-7v-2z" fill="#539B00"></path><path d="m2 23v2l62 31v-2z" opacity=".29"></path><path d="m78 47v2l-14 7v-2z" opacity=".11"></path><path d="m72 50-2 1v2l2 1 2-1v-2z" fill="#539B00"></path><path d="m70 51v2l2 1v-2z" opacity=".29"></path><path d="m74 51v2l-2 1v-2z" opacity=".11"></path><path d="m16 1-14 7v14l62 31 14-7v-14z" fill="#e5e5e5"></path><path d="m2 12v6l62 31v-6z" fill="#656565"></path><path d="m3 17.8v-5.3l-1-.5v6l62 31v-.7z" opacity=".2"></path><path d="m64 51-62-31v3l62 31 14-7v-3z" fill="#FF9900"></path><path d="m43 37.8v-5.3l-1-.5v6z" opacity=".2"></path><path d="m50 36 4 8v-6z" fill="#fff" opacity=".2"></path><path d="m49 40.8v-5.3l-1-.5v6z" opacity=".2"></path><path d="m54 35v14l6 3v-14z" fill="#FF9900" opacity=".85"></path><path d="m55 48.8v-13.3l-1-.5v14l6 3v-.7z" opacity=".2"></path><path d="m59 41-4-2v5l4 2z" fill="#656565"></path><path d="m55 39 4 5v-3z" fill="#fff" opacity=".2"></path><path d="m6 11v14l6 3v-14z" fill="#FF9900" opacity=".85"></path><path d="m7 24.8v-13.3l-1-.5v14l6 3v-.7z" opacity=".2"></path><path d="m11 17-4-2v5l4 2z" fill="#656565"></path><path d="m7 15 4 5v-3z" fill="#fff" opacity=".2"></path><path d="m37 34.8v-5.3l-1-.5v6z" opacity=".2"></path><path d="m44 33 4 8v-6z" fill="#fff" opacity=".2"></path><path d="m31 31.8v-5.3l-1-.5v6z" opacity=".2"></path><path d="m25 28.8v-5.3l-1-.5v6z" opacity=".2"></path><path d="m19 25.8v-5.3l-1-.5v6z" opacity=".2"></path><path d="m26 24 4 8v-6z" fill="#fff" opacity=".2"></path><path d="m12 17 6 9v-6z" fill="#fff" opacity=".2"></path><path d="m74 35v14l-6 3v-14z" opacity=".2"></path><path d="m73 48.8v-13.3l1-.5v14l-6 3v-.7z" opacity=".2"></path><path d="m69 40 4-2v5l-4 2z" fill="#656565"></path><path d="m73 38-4 5v-3z" fill="#fff" opacity=".2"></path><path d="m2 8v15l62 31v-15z" opacity=".29"></path><path d="m78 32v15l-14 7v-15z" opacity=".11"></path><path d="m26 10 6 3-6 3-6-3z" opacity=".1"></path><path d="m52 23 6 3-6 3-6-3z" opacity=".1"></path>
</g></g></g>
</svg>